<svg xmlns="http://www.w3.org/2000/svg" viewBox="0 0 16 16" shape-rendering="crispEdges" role="img"><rect x="3" y="1" width="1" height="1" fill="#12121c"/><rect x="6" y="1" width="4" height="1" fill="#12121c"/><rect x="12" y="1" width="1" height="1" fill="#12121c"/><rect x="3" y="2" width="1" height="1" fill="#12121c"/><rect x="6" y="2" width="4" height="1" fill="#12121c"/><rect x="12" y="2" width="1" height="1" fill="#12121c"/><rect x="1" y="3" width="14" height="1" fill="#12121c"/><rect x="1" y="4" width="1" height="1" fill="#12121c"/><rect x="2" y="4" width="12" height="1" fill="#0a246a"/><rect x="14" y="4" width="1" height="1" fill="#12121c"/><rect x="1" y="5" width="1" height="1" fill="#12121c"/><rect x="2" y="5" width="12" height="1" fill="#ffffff"/><rect x="14" y="5" width="1" height="1" fill="#12121c"/><rect x="1" y="6" width="1" height="1" fill="#12121c"/><rect x="2" y="6" width="1" height="1" fill="#ffffff"/><rect x="3" y="6" width="2" height="1" fill="#e01b24"/><rect x="5" y="6" width="9" height="1" fill="#ffffff"/><rect x="14" y="6" width="1" height="1" fill="#12121c"/><rect x="1" y="7" width="1" height="1" fill="#12121c"/><rect x="2" y="7" width="1" height="1" fill="#ffffff"/><rect x="3" y="7" width="2" height="1" fill="#e01b24"/><rect x="5" y="7" width="9" height="1" fill="#ffffff"/><rect x="14" y="7" width="1" height="1" fill="#12121c"/><rect x="1" y="8" width="1" height="1" fill="#12121c"/><rect x="2" y="8" width="6" height="1" fill="#ffffff"/><rect x="8" y="8" width="2" height="1" fill="#3cb043"/><rect x="10" y="8" width="4" height="1" fill="#ffffff"/><rect x="14" y="8" width="1" height="1" fill="#12121c"/><rect x="1" y="9" width="1" height="1" fill="#12121c"/><rect x="2" y="9" width="6" height="1" fill="#ffffff"/><rect x="8" y="9" width="2" height="1" fill="#3cb043"/><rect x="10" y="9" width="4" height="1" fill="#ffffff"/><rect x="14" y="9" width="1" height="1" fill="#12121c"/><rect x="1" y="10" width="1" height="1" fill="#12121c"/><rect x="2" y="10" width="12" height="1" fill="#ffffff"/><rect x="14" y="10" width="1" height="1" fill="#12121c"/><rect x="1" y="11" width="1" height="1" fill="#12121c"/><rect x="2" y="11" width="12" height="1" fill="#ffffff"/><rect x="14" y="11" width="1" height="1" fill="#12121c"/><rect x="1" y="12" width="1" height="1" fill="#12121c"/><rect x="2" y="12" width="2" height="1" fill="#ffffff"/><rect x="4" y="12" width="2" height="1" fill="#9b30ff"/><rect x="6" y="12" width="8" height="1" fill="#ffffff"/><rect x="14" y="12" width="1" height="1" fill="#12121c"/><rect x="1" y="13" width="1" height="1" fill="#12121c"/><rect x="2" y="13" width="2" height="1" fill="#ffffff"/><rect x="4" y="13" width="2" height="1" fill="#9b30ff"/><rect x="6" y="13" width="8" height="1" fill="#ffffff"/><rect x="14" y="13" width="1" height="1" fill="#12121c"/><rect x="1" y="14" width="14" height="1" fill="#12121c"/></svg>
